<mxfile host="app.diagrams.net" modified="2020-12-06T02:30:10.713Z" agent="5.0 (Windows NT 10.0; Win64; x64) AppleWebKit/537.36 (KHTML, like Gecko) Chrome/86.0.4240.198 Safari/537.36" etag="ZRMDg2M9fAa_DmuOHTwv" version="13.10.9" type="github">
  <diagram id="prtHgNgQTEPvFCAcTncT" name="Page-1">
    <mxGraphModel dx="868" dy="482" grid="1" gridSize="10" guides="1" tooltips="1" connect="1" arrows="1" fold="1" page="1" pageScale="1" pageWidth="827" pageHeight="1169" math="0" shadow="0">
      <root>
        <mxCell id="0" />
        <mxCell id="1" parent="0" />
        <mxCell id="GTgPGzJTxqfrk-J6N7A_-4" value="" style="rounded=0;whiteSpace=wrap;html=1;" vertex="1" parent="1">
          <mxGeometry x="120" y="120" width="170" height="100" as="geometry" />
        </mxCell>
        <mxCell id="GTgPGzJTxqfrk-J6N7A_-16" style="edgeStyle=orthogonalEdgeStyle;rounded=0;orthogonalLoop=1;jettySize=auto;html=1;entryX=0;entryY=0.5;entryDx=0;entryDy=0;" edge="1" parent="1" target="GTgPGzJTxqfrk-J6N7A_-10">
          <mxGeometry relative="1" as="geometry">
            <mxPoint x="330" y="180" as="targetPoint" />
            <mxPoint x="290" y="169" as="sourcePoint" />
          </mxGeometry>
        </mxCell>
        <mxCell id="GTgPGzJTxqfrk-J6N7A_-3" value="&lt;h1&gt;&lt;font style=&quot;font-size: 20px&quot;&gt;Ambulance&lt;/font&gt;&lt;/h1&gt;&lt;p&gt;Login:&lt;br&gt;driver@email.com&lt;/p&gt;" style="text;html=1;strokeColor=none;fillColor=none;spacing=5;spacingTop=-20;whiteSpace=wrap;overflow=hidden;rounded=0;" vertex="1" parent="1">
          <mxGeometry x="130" y="121" width="150" height="100" as="geometry" />
        </mxCell>
        <mxCell id="GTgPGzJTxqfrk-J6N7A_-18" value="" style="edgeStyle=orthogonalEdgeStyle;rounded=0;orthogonalLoop=1;jettySize=auto;html=1;" edge="1" parent="1" source="GTgPGzJTxqfrk-J6N7A_-5" target="GTgPGzJTxqfrk-J6N7A_-15">
          <mxGeometry relative="1" as="geometry" />
        </mxCell>
        <mxCell id="GTgPGzJTxqfrk-J6N7A_-5" value="" style="rounded=0;whiteSpace=wrap;html=1;" vertex="1" parent="1">
          <mxGeometry x="119" y="280" width="170" height="100" as="geometry" />
        </mxCell>
        <mxCell id="GTgPGzJTxqfrk-J6N7A_-6" value="&lt;h1&gt;&lt;span style=&quot;font-size: 20px&quot;&gt;Transit Agent&lt;/span&gt;&lt;/h1&gt;&lt;p&gt;Login:&lt;br&gt;transitagent@email.com&lt;/p&gt;" style="text;html=1;strokeColor=none;fillColor=none;spacing=5;spacingTop=-20;whiteSpace=wrap;overflow=hidden;rounded=0;" vertex="1" parent="1">
          <mxGeometry x="129" y="280" width="150" height="100" as="geometry" />
        </mxCell>
        <mxCell id="GTgPGzJTxqfrk-J6N7A_-12" style="edgeStyle=orthogonalEdgeStyle;rounded=0;orthogonalLoop=1;jettySize=auto;html=1;" edge="1" parent="1" source="GTgPGzJTxqfrk-J6N7A_-10">
          <mxGeometry relative="1" as="geometry">
            <mxPoint x="600" y="169" as="targetPoint" />
          </mxGeometry>
        </mxCell>
        <mxCell id="GTgPGzJTxqfrk-J6N7A_-22" style="edgeStyle=orthogonalEdgeStyle;rounded=0;orthogonalLoop=1;jettySize=auto;html=1;" edge="1" parent="1" source="GTgPGzJTxqfrk-J6N7A_-10">
          <mxGeometry relative="1" as="geometry">
            <mxPoint x="452" y="280" as="targetPoint" />
          </mxGeometry>
        </mxCell>
        <mxCell id="GTgPGzJTxqfrk-J6N7A_-10" value="&lt;b&gt;Envia mensagem após socorrer alguém&lt;/b&gt;&lt;br&gt;&lt;div style=&quot;text-align: left&quot;&gt;&lt;span&gt;&amp;nbsp; -local: saída e destino,&lt;/span&gt;&lt;/div&gt;&lt;div style=&quot;text-align: left&quot;&gt;&lt;span&gt;&amp;nbsp; -hora&lt;/span&gt;&lt;/div&gt;&lt;div style=&quot;text-align: left&quot;&gt;&lt;span&gt;&amp;nbsp; - placa da ambulância&lt;/span&gt;&lt;/div&gt;&lt;div style=&quot;text-align: left&quot;&gt;&lt;span&gt;&amp;nbsp; -possíveis rotas&lt;/span&gt;&lt;/div&gt;&lt;div style=&quot;text-align: left&quot;&gt;&lt;span&gt;&amp;nbsp; -número de telefone do motorista&lt;/span&gt;&lt;/div&gt;" style="rounded=1;whiteSpace=wrap;html=1;" vertex="1" parent="1">
          <mxGeometry x="354" y="120" width="196" height="98" as="geometry" />
        </mxCell>
        <mxCell id="GTgPGzJTxqfrk-J6N7A_-14" style="edgeStyle=orthogonalEdgeStyle;rounded=0;orthogonalLoop=1;jettySize=auto;html=1;" edge="1" parent="1" source="GTgPGzJTxqfrk-J6N7A_-15">
          <mxGeometry relative="1" as="geometry">
            <mxPoint x="599" y="329" as="targetPoint" />
          </mxGeometry>
        </mxCell>
        <mxCell id="GTgPGzJTxqfrk-J6N7A_-15" value="&lt;b&gt;Recebe a mensagem enviada pelo motorista&lt;/b&gt;&lt;br&gt;&lt;div style=&quot;text-align: left&quot;&gt;&lt;span&gt;&amp;nbsp; -local: saída e destino,&lt;/span&gt;&lt;/div&gt;&lt;div style=&quot;text-align: left&quot;&gt;&lt;span&gt;&amp;nbsp; -&lt;/span&gt;&lt;span&gt;hora&lt;/span&gt;&lt;/div&gt;&lt;div style=&quot;text-align: left&quot;&gt;&amp;nbsp; -placa da ambulância&lt;/div&gt;&lt;div style=&quot;text-align: left&quot;&gt;&lt;span&gt;&amp;nbsp; -possíveis rotas&lt;/span&gt;&lt;/div&gt;&lt;div style=&quot;text-align: left&quot;&gt;&lt;span&gt;&amp;nbsp; -número de telefone do motorista&lt;/span&gt;&lt;/div&gt;" style="rounded=1;whiteSpace=wrap;html=1;" vertex="1" parent="1">
          <mxGeometry x="355" y="280" width="196" height="98" as="geometry" />
        </mxCell>
        <mxCell id="GTgPGzJTxqfrk-J6N7A_-19" value="&lt;b&gt;Recebe mensagem confirmando que o agente de trânsito recebeu&lt;/b&gt;&lt;br&gt;&lt;div style=&quot;text-align: left&quot;&gt;&lt;span&gt;-confirmação de leitura de mensagem&lt;br&gt;&lt;/span&gt;&lt;/div&gt;&lt;div style=&quot;text-align: left&quot;&gt;&lt;span&gt;-número de telefone do agente de trânsito&lt;/span&gt;&lt;/div&gt;" style="rounded=1;whiteSpace=wrap;html=1;" vertex="1" parent="1">
          <mxGeometry x="602" y="121" width="196" height="98" as="geometry" />
        </mxCell>
        <mxCell id="GTgPGzJTxqfrk-J6N7A_-20" style="edgeStyle=orthogonalEdgeStyle;rounded=0;orthogonalLoop=1;jettySize=auto;html=1;" edge="1" source="GTgPGzJTxqfrk-J6N7A_-19" parent="1">
          <mxGeometry relative="1" as="geometry">
            <mxPoint x="848" y="170" as="targetPoint" />
          </mxGeometry>
        </mxCell>
        <mxCell id="GTgPGzJTxqfrk-J6N7A_-24" style="edgeStyle=orthogonalEdgeStyle;rounded=0;orthogonalLoop=1;jettySize=auto;html=1;" edge="1" source="GTgPGzJTxqfrk-J6N7A_-25" parent="1">
          <mxGeometry relative="1" as="geometry">
            <mxPoint x="848" y="326" as="targetPoint" />
          </mxGeometry>
        </mxCell>
        <mxCell id="GTgPGzJTxqfrk-J6N7A_-32" style="edgeStyle=orthogonalEdgeStyle;rounded=0;orthogonalLoop=1;jettySize=auto;html=1;entryX=0.5;entryY=1;entryDx=0;entryDy=0;" edge="1" parent="1" source="GTgPGzJTxqfrk-J6N7A_-25" target="GTgPGzJTxqfrk-J6N7A_-19">
          <mxGeometry relative="1" as="geometry" />
        </mxCell>
        <mxCell id="GTgPGzJTxqfrk-J6N7A_-25" value="&lt;b&gt;Envia confirmação de leitura&lt;/b&gt;&lt;br&gt;&lt;div style=&quot;text-align: left&quot;&gt;&lt;span&gt;-confirmação de leitura de mensagem&lt;br&gt;&lt;/span&gt;&lt;/div&gt;&lt;div style=&quot;text-align: left&quot;&gt;&lt;br&gt;&lt;/div&gt;" style="rounded=1;whiteSpace=wrap;html=1;" vertex="1" parent="1">
          <mxGeometry x="602" y="277" width="196" height="98" as="geometry" />
        </mxCell>
        <mxCell id="GTgPGzJTxqfrk-J6N7A_-26" style="edgeStyle=orthogonalEdgeStyle;rounded=0;orthogonalLoop=1;jettySize=auto;html=1;" edge="1" source="GTgPGzJTxqfrk-J6N7A_-27" parent="1">
          <mxGeometry relative="1" as="geometry">
            <mxPoint x="1096" y="169" as="targetPoint" />
          </mxGeometry>
        </mxCell>
        <mxCell id="GTgPGzJTxqfrk-J6N7A_-31" style="edgeStyle=orthogonalEdgeStyle;rounded=0;orthogonalLoop=1;jettySize=auto;html=1;entryX=0.5;entryY=0;entryDx=0;entryDy=0;" edge="1" parent="1" source="GTgPGzJTxqfrk-J6N7A_-27" target="GTgPGzJTxqfrk-J6N7A_-30">
          <mxGeometry relative="1" as="geometry" />
        </mxCell>
        <mxCell id="GTgPGzJTxqfrk-J6N7A_-27" value="&lt;b&gt;Envia mensagem após socorrer alguém&lt;/b&gt;&lt;br&gt;&lt;div style=&quot;text-align: left&quot;&gt;&lt;span&gt;&amp;nbsp; -local: endereço atual com sentido,&lt;/span&gt;&lt;/div&gt;&lt;div style=&quot;text-align: left&quot;&gt;&lt;span&gt;&amp;nbsp; -hora&lt;/span&gt;&lt;/div&gt;&lt;div style=&quot;text-align: left&quot;&gt;&lt;span&gt;&amp;nbsp; - placa da ambulância&lt;/span&gt;&lt;/div&gt;&lt;div style=&quot;text-align: left&quot;&gt;&lt;span&gt;&amp;nbsp; -possíveis rotas&lt;/span&gt;&lt;/div&gt;&lt;div style=&quot;text-align: left&quot;&gt;&lt;span&gt;&amp;nbsp; -número de telefone do motorista&lt;/span&gt;&lt;/div&gt;" style="rounded=1;whiteSpace=wrap;html=1;" vertex="1" parent="1">
          <mxGeometry x="850" y="120" width="210" height="98" as="geometry" />
        </mxCell>
        <mxCell id="GTgPGzJTxqfrk-J6N7A_-29" style="edgeStyle=orthogonalEdgeStyle;rounded=0;orthogonalLoop=1;jettySize=auto;html=1;" edge="1" source="GTgPGzJTxqfrk-J6N7A_-30" parent="1">
          <mxGeometry relative="1" as="geometry">
            <mxPoint x="1096" y="326" as="targetPoint" />
          </mxGeometry>
        </mxCell>
        <mxCell id="GTgPGzJTxqfrk-J6N7A_-30" value="&lt;b&gt;Recebe mensagem após socorrer alguém&lt;/b&gt;&lt;br&gt;&lt;div style=&quot;text-align: left&quot;&gt;&lt;span&gt;&amp;nbsp; -local: endereço atual com sentido,&lt;/span&gt;&lt;/div&gt;&lt;div style=&quot;text-align: left&quot;&gt;&lt;span&gt;&amp;nbsp; -hora&lt;/span&gt;&lt;/div&gt;&lt;div style=&quot;text-align: left&quot;&gt;&lt;span&gt;&amp;nbsp; - placa da ambulância&lt;/span&gt;&lt;/div&gt;&lt;div style=&quot;text-align: left&quot;&gt;&lt;span&gt;&amp;nbsp; -possíveis rotas&lt;/span&gt;&lt;/div&gt;&lt;div style=&quot;text-align: left&quot;&gt;&lt;span&gt;&amp;nbsp; -número de telefone do motorista&lt;/span&gt;&lt;/div&gt;" style="rounded=1;whiteSpace=wrap;html=1;" vertex="1" parent="1">
          <mxGeometry x="850" y="277" width="210" height="98" as="geometry" />
        </mxCell>
        <mxCell id="GTgPGzJTxqfrk-J6N7A_-33" value="&lt;b&gt;Recebe mensagem confirmando que o agente de trânsito recebeu&lt;/b&gt;&lt;br&gt;&lt;div style=&quot;text-align: left&quot;&gt;&lt;span&gt;-confirmação de leitura de mensagem&lt;br&gt;&lt;/span&gt;&lt;/div&gt;&lt;div style=&quot;text-align: left&quot;&gt;&lt;span&gt;-número de telefone do agente de trânsito&lt;/span&gt;&lt;/div&gt;" style="rounded=1;whiteSpace=wrap;html=1;" vertex="1" parent="1">
          <mxGeometry x="1097" y="121" width="196" height="98" as="geometry" />
        </mxCell>
        <mxCell id="GTgPGzJTxqfrk-J6N7A_-36" style="edgeStyle=orthogonalEdgeStyle;rounded=0;orthogonalLoop=1;jettySize=auto;html=1;entryX=0.5;entryY=1;entryDx=0;entryDy=0;" edge="1" source="GTgPGzJTxqfrk-J6N7A_-37" target="GTgPGzJTxqfrk-J6N7A_-33" parent="1">
          <mxGeometry relative="1" as="geometry" />
        </mxCell>
        <mxCell id="GTgPGzJTxqfrk-J6N7A_-37" value="&lt;b&gt;Envia confirmação de leitura&lt;/b&gt;&lt;br&gt;&lt;div style=&quot;text-align: left&quot;&gt;&lt;span&gt;-confirmação de leitura de mensagem&lt;br&gt;&lt;/span&gt;&lt;/div&gt;&lt;div style=&quot;text-align: left&quot;&gt;&lt;br&gt;&lt;/div&gt;" style="rounded=1;whiteSpace=wrap;html=1;" vertex="1" parent="1">
          <mxGeometry x="1097" y="277" width="196" height="98" as="geometry" />
        </mxCell>
        <mxCell id="GTgPGzJTxqfrk-J6N7A_-38" value="Text" style="text;html=1;strokeColor=none;fillColor=none;align=center;verticalAlign=middle;whiteSpace=wrap;rounded=0;" vertex="1" parent="1">
          <mxGeometry x="760" y="190" width="40" height="20" as="geometry" />
        </mxCell>
        <mxCell id="GTgPGzJTxqfrk-J6N7A_-39" value="Text" style="text;html=1;strokeColor=none;fillColor=none;align=center;verticalAlign=middle;whiteSpace=wrap;rounded=0;" vertex="1" parent="1">
          <mxGeometry x="760" y="190" width="40" height="20" as="geometry" />
        </mxCell>
        <mxCell id="GTgPGzJTxqfrk-J6N7A_-40" value="Text" style="text;html=1;strokeColor=none;fillColor=none;align=center;verticalAlign=middle;whiteSpace=wrap;rounded=0;" vertex="1" parent="1">
          <mxGeometry x="760" y="190" width="40" height="20" as="geometry" />
        </mxCell>
        <mxCell id="GTgPGzJTxqfrk-J6N7A_-41" value="Text" style="text;html=1;strokeColor=none;fillColor=none;align=center;verticalAlign=middle;whiteSpace=wrap;rounded=0;" vertex="1" parent="1">
          <mxGeometry x="480" y="190" width="40" height="20" as="geometry" />
        </mxCell>
        <mxCell id="GTgPGzJTxqfrk-J6N7A_-42" value="Funcionamento da API Alert Ambulance Traffic" style="text;html=1;strokeColor=none;fillColor=none;align=center;verticalAlign=middle;whiteSpace=wrap;rounded=0;fontSize=40;" vertex="1" parent="1">
          <mxGeometry x="130" y="50" width="830" height="20" as="geometry" />
        </mxCell>
      </root>
    </mxGraphModel>
  </diagram>
</mxfile>
